<svg width="394" height="116" viewBox="0 0 394 116" fill="none" xmlns="http://www.w3.org/2000/svg">
<mask id="mask0_1_33" style="mask-type:alpha" maskUnits="userSpaceOnUse" x="0" y="0" width="394" height="116">
<rect width="394" height="116" fill="#D9D9D9"/>
</mask>
<g mask="url(#mask0_1_33)">
<path d="M30.0693 2.788C17.196 8.19467 8.45464 17.2173 3.59064 30.1187C-0.285359 40.3973 0.369308 57.4773 4.97864 66.3333L8.10132 72.3333L10.2146 67.6667L12.3266 63L12.7427 70.268C13.2667 79.4413 10.4626 86.972 3.85865 94.1253C-0.950687 99.3347 -1.02935 99.5587 2.23599 98.776C7.58399 97.492 17.4067 92.2427 20.1587 89.1973C22.612 86.4813 22.7227 86.4773 27.492 88.8987C50.072 100.365 79.1933 90 90.064 66.6267C95.0853 55.8307 95.716 40.7893 91.612 29.6667C87.9493 19.7373 77.508 8.99734 66.576 3.912C55.6453 -1.172 40.6013 -1.63467 30.0693 2.788Z" fill="#00B1E0" stroke="#00B1E0" stroke-width="1.33333"/>
<path d="M87.604 20.912C93.848 29.68 96.6133 43.9453 94.2853 55.3693C90.0227 76.2906 72.5333 92.0867 51.5227 93.992L43.5347 94.716L47.0653 98.4013C49.008 100.428 54.2867 103.792 58.7987 105.877C65.8747 109.147 68.556 109.652 78.3333 109.557C86.9227 109.473 91.2307 108.745 96.1307 106.548L102.595 103.649L106.797 107.197C111.293 110.993 120.433 115.589 123.583 115.637C124.867 115.657 124.361 114.456 122.052 112C114.952 104.447 113.007 99.6147 113.061 89.6667L113.112 80.3333L115.497 84.8093L117.883 89.2853L121.091 82.1427C123.663 76.4147 124.301 72.748 124.313 63.6347C124.328 53.468 123.868 51.332 119.957 43.388C114.615 32.536 105.099 23.56 94.8853 19.7387C85.2173 16.1213 84.2987 16.2693 87.604 20.912Z" fill="#0066A5" stroke="#0066A5" stroke-width="1.33333"/>
<path d="M333.723 43.2933C325.649 45.3827 321.591 52.1574 322.672 61.7427C324.787 80.508 350.307 81.38 353.791 62.808C355.984 51.1133 344.953 40.3867 333.723 43.2933ZM343.667 51.6667C349.204 57.204 345.661 70.3333 338.631 70.3333C337.327 70.3333 334.927 69.3987 333.297 68.2573C330.921 66.5947 330.333 64.888 330.333 59.6667C330.333 54.4453 330.921 52.7387 333.297 51.076C337.285 48.2827 340.463 48.4627 343.667 51.6667Z" fill="black" stroke="black" stroke-width="1.33333"/>
<path d="M206.333 53V77H210.333C214.133 77 214.333 76.724 214.333 71.48C214.333 66.5307 216.719 62.5427 219.779 62.376C220.207 62.352 222.829 65.6333 225.608 69.6667C229.753 75.6867 231.345 77 234.496 77C236.607 77 238.333 76.6547 238.333 76.232C238.333 75.8093 235.739 72.06 232.569 67.8987C229.399 63.7373 226.364 59.584 225.824 58.6693C225.213 57.6307 227.456 54.2427 231.783 49.6693L238.72 42.3333H234.671C231.432 42.3333 229.136 43.9373 223.213 50.3333C219.14 54.7333 215.476 58.3333 215.071 58.3333C214.665 58.3333 214.333 51.7333 214.333 43.6667V29H210.333H206.333V53Z" fill="black" stroke="black" stroke-width="1.33333"/>
<path fill-rule="evenodd" clip-rule="evenodd" d="M252.604 74.056C241.419 69.7627 242.917 47.2347 254.616 43.824C264.895 40.828 274.333 47.1453 274.333 57.0213V62.3333H263.667C252.301 62.3333 250.495 63.6373 255.257 68.4C257.051 70.1933 259.105 70.5133 265.257 69.9547C272.177 69.328 273 69.5173 273 71.7413C273 73.5227 271.463 74.644 267.601 75.684C262.272 77.1187 259.917 76.864 252.604 74.056ZM260.5 50C253.5 50 253 56.5 253 56.5H268C268 56.5 267.5 50 260.5 50Z" fill="black"/>
<path d="M254.616 43.824L254.429 43.184L254.429 43.184L254.616 43.824ZM252.604 74.056L252.843 73.4336L252.843 73.4336L252.604 74.056ZM274.333 62.3333V63H275V62.3333H274.333ZM265.257 69.9547L265.197 69.2907L265.197 69.2907L265.257 69.9547ZM267.601 75.684L267.775 76.3277L267.775 76.3277L267.601 75.684ZM253 56.5L252.335 56.4489L252.28 57.1667H253V56.5ZM268 56.5V57.1667H268.72L268.665 56.4489L268 56.5ZM254.429 43.184C248.187 45.0039 244.81 51.8463 244.363 58.5647C243.917 65.2765 246.365 72.3754 252.365 74.6784L252.843 73.4336C247.657 71.4432 245.263 65.1315 245.694 58.6533C246.124 52.1817 249.346 46.0548 254.803 44.464L254.429 43.184ZM275 57.0213C275 46.623 265.057 40.0863 254.429 43.184L254.803 44.464C264.733 41.5697 273.667 47.6677 273.667 57.0213H275ZM275 62.3333V57.0213H273.667V62.3333H275ZM263.667 63H274.333V61.6667H263.667V63ZM255.729 67.9286C254.542 66.7417 253.849 65.8485 253.581 65.1912C253.452 64.8754 253.446 64.6718 253.477 64.541C253.505 64.4214 253.584 64.2802 253.804 64.1213C254.29 63.7705 255.277 63.4698 256.965 63.2737C258.619 63.0816 260.833 63 263.667 63V61.6667C260.818 61.6667 258.543 61.7481 256.811 61.9493C255.113 62.1465 253.815 62.4695 253.024 63.04C252.606 63.3418 252.298 63.7357 252.18 64.234C252.064 64.7211 252.152 65.2183 252.346 65.6944C252.724 66.6211 253.591 67.6769 254.786 68.8714L255.729 67.9286ZM265.197 69.2907C262.121 69.5701 260.143 69.621 258.725 69.4006C257.357 69.1877 256.524 68.7241 255.729 67.9286L254.786 68.8714C255.784 69.8692 256.875 70.4623 258.52 70.7181C260.117 70.9663 262.242 70.8979 265.318 70.6186L265.197 69.2907ZM273.667 71.7413C273.667 71.1739 273.621 70.5878 273.341 70.1023C273.033 69.5692 272.52 69.2786 271.874 69.1294C271.249 68.9853 270.424 68.9545 269.364 68.9904C268.293 69.0268 266.927 69.134 265.197 69.2907L265.317 70.6186C267.047 70.462 268.379 70.3579 269.409 70.323C270.449 70.2877 271.128 70.3257 271.574 70.4286C271.998 70.5264 272.123 70.661 272.186 70.7692C272.276 70.9252 272.333 71.1968 272.333 71.7413H273.667ZM267.775 76.3277C269.723 75.8031 271.171 75.2375 272.142 74.5291C273.154 73.7904 273.667 72.8763 273.667 71.7413H272.333C272.333 72.3877 272.078 72.925 271.356 73.4522C270.592 74.0098 269.341 74.5249 267.428 75.0403L267.775 76.3277ZM252.365 74.6784C256.023 76.0831 258.512 76.8782 260.775 77.1238C263.062 77.3719 265.075 77.0546 267.775 76.3277L267.428 75.0402C264.799 75.7481 262.969 76.0207 260.919 75.7982C258.844 75.5731 256.498 74.837 252.843 73.4336L252.365 74.6784ZM253 56.5C253.665 56.5511 253.665 56.5515 253.665 56.5518C253.665 56.5518 253.665 56.5521 253.665 56.5522C253.665 56.5525 253.665 56.5527 253.665 56.5527C253.665 56.5529 253.665 56.5527 253.665 56.5521C253.665 56.5508 253.665 56.5481 253.665 56.5439C253.666 56.5356 253.668 56.5214 253.67 56.5017C253.674 56.4625 253.682 56.4015 253.694 56.3221C253.719 56.163 253.761 55.9307 253.833 55.65C253.978 55.086 254.237 54.34 254.693 53.5994C255.585 52.1502 257.256 50.6667 260.5 50.6667V49.3333C256.744 49.3333 254.665 51.0998 253.557 52.9006C253.013 53.785 252.71 54.664 252.542 55.3188C252.457 55.6474 252.406 55.923 252.376 56.1193C252.361 56.2176 252.351 56.2963 252.345 56.3523C252.342 56.3802 252.339 56.4025 252.338 56.4188C252.337 56.4269 252.337 56.4335 252.336 56.4385C252.336 56.441 252.336 56.4432 252.336 56.4449C252.336 56.4457 252.335 56.4465 252.335 56.4472C252.335 56.4475 252.335 56.4479 252.335 56.4481C252.335 56.4485 252.335 56.4489 253 56.5ZM268 55.8333H253V57.1667H268V55.8333ZM260.5 50.6667C263.744 50.6667 265.415 52.1502 266.307 53.5994C266.763 54.34 267.022 55.086 267.167 55.65C267.239 55.9307 267.281 56.163 267.306 56.3221C267.318 56.4015 267.326 56.4625 267.33 56.5017C267.332 56.5214 267.334 56.5356 267.335 56.5439C267.335 56.5481 267.335 56.5508 267.335 56.5521C267.335 56.5527 267.335 56.5529 267.335 56.5527C267.335 56.5527 267.335 56.5525 267.335 56.5522C267.335 56.5521 267.335 56.5518 267.335 56.5518C267.335 56.5515 267.335 56.5511 268 56.5C268.665 56.4489 268.665 56.4485 268.665 56.4481C268.665 56.4479 268.665 56.4475 268.665 56.4472C268.665 56.4465 268.664 56.4457 268.664 56.4449C268.664 56.4432 268.664 56.441 268.664 56.4385C268.663 56.4335 268.663 56.4269 268.662 56.4188C268.661 56.4025 268.658 56.3802 268.655 56.3523C268.649 56.2963 268.639 56.2176 268.624 56.1193C268.594 55.923 268.543 55.6474 268.458 55.3188C268.29 54.664 267.987 53.785 267.443 52.9006C266.335 51.0998 264.256 49.3333 260.5 49.3333V50.6667ZM252.5 57.6667H269V56.3333H252.5V57.6667Z" fill="black"/>
<path d="M363.667 55.4867C363.667 66.5867 364.08 69.1654 366.312 72.004C370.772 77.6747 376.003 77.672 386.553 71.9973C387.041 71.7347 387.832 72.7534 388.311 74.26C388.792 75.7787 390.328 77 391.756 77C394.171 77 394.333 75.9093 394.333 59.6667V42.3333H390.333H386.333V53.6667C386.333 63.2227 385.915 65.4187 383.667 67.6667C380.689 70.644 378.073 71.0013 374.245 68.9533C371.975 67.7373 371.667 66.0653 371.667 54.9533V42.3333H367.667H363.667V55.4867Z" fill="black" stroke="black" stroke-width="1.33333"/>
<path d="M287.108 44.844C293.941 57.3067 294.333 58.5347 294.333 67.5107V77H298.333H302.333V68.1147C302.333 59.8253 302.825 58.3493 309.667 46.1013C313.7 38.88 317 32.6787 317 32.3187C317 31.96 315.351 31.6707 313.333 31.676C310.171 31.6827 308.969 32.9653 304.588 41.0093C301.796 46.1373 299.061 50.3333 298.513 50.3333C297.964 50.3333 295.484 46.1333 293 41C288.795 32.3067 288.191 31.6667 284.184 31.6667H279.883L287.108 44.844Z" fill="black" stroke="black" stroke-width="1.33333"/>
<path d="M151.667 54.3333V77H165H178.333V73V69H169H159.667V50.3333V31.6667H155.667H151.667V54.3333Z" fill="black" stroke="black" stroke-width="1.33333"/>
<path d="M187.667 59.6667V77H191.667H195.667V59.6667V42.3333H191.667H187.667V59.6667Z" fill="black" stroke="black" stroke-width="1.33333"/>
</g>
</svg>
